<?xml version="1.0" standalone="no"?>
<!DOCTYPE svg PUBLIC "-//W3C//DTD SVG 20010904//EN"
 "http://www.w3.org/TR/2001/REC-SVG-20010904/DTD/svg10.dtd">
<svg version="1.0" xmlns="http://www.w3.org/2000/svg"
 width="708.000000pt" height="708.000000pt" viewBox="0 0 708.000000 708.000000"
 preserveAspectRatio="xMidYMid meet">

<g transform="translate(0.000000,708.000000) scale(0.100000,-0.100000)"
fill="#000000" stroke="none">
<path d="M3269 7069 c-316 -24 -652 -98 -959 -211 -163 -59 -496 -223 -640
-313 -382 -241 -692 -526 -959 -882 -717 -954 -903 -2203 -496 -3328 412
-1139 1372 -1984 2557 -2249 1058 -237 2167 28 3017 721 136 111 373 348 484
484 179 220 317 436 445 696 610 1243 438 2720 -445 3802 -111 136 -348 373
-484 484 -712 580 -1615 866 -2520 796z m426 -1065 c123 -15 189 -31 283 -65
449 -163 798 -585 900 -1089 76 -372 23 -751 -153 -1095 -72 -140 -129 -220
-242 -338 -123 -129 -245 -220 -282 -210 -12 3 -28 0 -36 -7 -8 -6 -19 -9 -24
-6 -5 4 -12 2 -15 -3 -3 -5 2 -12 11 -15 10 -4 20 -1 25 9 10 17 38 21 38 5 0
-11 -200 -110 -221 -110 -19 1 30 38 56 43 11 2 6 3 -11 1 -32 -2 -77 -32 -69
-44 5 -9 -126 -44 -216 -59 -115 -19 -362 -11 -328 10 8 4 10 11 6 15 -3 4
-13 1 -22 -6 -42 -35 -313 59 -470 164 -33 22 -62 42 -65 45 -3 4 -18 15 -34
25 -55 35 -199 181 -267 272 -38 50 -69 95 -69 99 0 5 -7 17 -17 27 -10 11
-12 18 -4 18 6 0 14 -6 17 -14 3 -7 16 -12 30 -10 16 1 28 -5 35 -18 9 -18 8
-18 -10 -9 -25 14 -31 14 -31 1 0 -5 7 -10 15 -10 8 0 12 -6 9 -13 -6 -16 45
-84 69 -92 9 -4 17 -13 17 -22 0 -23 61 -76 74 -63 7 7 6 10 -3 10 -7 0 -19 7
-27 15 -9 8 -12 15 -8 15 3 0 1 7 -6 15 -7 9 -10 18 -7 21 6 6 76 -66 77 -79
0 -4 -5 -6 -11 -5 -6 2 -14 -3 -16 -9 -3 -7 2 -13 11 -13 10 0 13 -6 10 -15
-7 -17 4 -19 25 -6 9 6 10 11 2 15 -6 4 -11 12 -11 17 0 6 28 -15 63 -47 34
-31 77 -66 95 -76 31 -20 42 -38 22 -38 -6 0 -13 7 -16 15 -4 8 -17 15 -30 15
-14 0 -24 6 -24 14 0 16 -27 29 -42 20 -6 -4 6 -17 26 -29 20 -12 45 -31 56
-42 13 -14 27 -19 45 -15 20 3 23 7 13 13 -7 5 -8 8 -3 8 6 0 24 -9 40 -19
103 -65 285 -138 383 -155 23 -4 42 -11 42 -16 0 -5 7 -9 16 -9 9 0 33 -10 52
-22 22 -13 32 -16 27 -7 -23 35 -16 38 118 38 131 0 161 -4 136 -20 -10 -6 -4
-9 18 -9 17 0 34 4 37 8 3 5 24 9 46 10 23 1 46 5 51 8 16 10 -1 24 -29 24
-19 0 -23 -3 -14 -9 11 -6 9 -9 -7 -14 -11 -2 -22 0 -24 6 -3 9 -11 9 -30 0
-14 -7 -29 -8 -32 -4 -2 5 12 12 33 16 141 25 326 110 454 207 23 18 43 26 55
22 13 -4 15 -3 4 4 -11 8 -11 11 2 18 49 28 198 188 258 276 130 191 203 366
254 612 25 120 27 139 22 324 -5 218 -27 347 -87 512 -117 322 -383 624 -675
765 -124 61 -259 104 -363 117 -104 12 -324 4 -402 -15 -138 -35 -299 -102
-367 -153 -17 -13 -36 -24 -41 -24 -6 0 -12 -3 -14 -7 -1 -5 -28 -26 -58 -49
-53 -39 -173 -157 -223 -219 -77 -96 -227 -362 -227 -404 0 -6 -4 -19 -9 -29
-14 -25 -38 -109 -49 -172 -6 -30 -15 -66 -20 -80 -14 -38 -7 -516 9 -566 7
-23 10 -47 7 -55 -7 -18 -5 -35 4 -32 4 2 12 -16 19 -40 6 -23 18 -59 27 -80
18 -45 11 -56 -19 -28 -13 12 -26 21 -30 21 -5 0 -13 19 -19 43 -6 23 -15 56
-20 72 -9 29 -32 162 -45 253 -6 41 1 52 21 32 7 -7 11 -1 11 20 0 20 -3 26
-9 18 -5 -10 -8 -8 -8 5 0 10 -4 15 -10 12 -6 -4 -9 20 -8 67 l1 73 7 -60 c7
-65 11 -61 12 11 1 25 -4 49 -11 53 -8 5 -10 25 -7 57 8 79 34 237 45 269 6
17 17 56 26 87 13 45 20 56 33 51 12 -3 13 -2 5 4 -43 31 145 356 301 523 209
224 469 363 746 400 47 6 87 14 89 16 8 8 89 4 206 -12z m7 -309 c59 -7 129
-20 156 -28 144 -43 222 -125 222 -235 0 -61 -53 -222 -68 -207 -7 6 -6 5 -16
95 -17 153 -118 262 -281 305 -203 52 -433 -47 -515 -222 -47 -99 -49 -243 -5
-338 39 -86 156 -210 275 -291 147 -99 186 -128 278 -202 177 -143 272 -267
325 -428 29 -91 32 -279 4 -364 -34 -105 -146 -275 -175 -265 -7 3 -10 0 -7
-5 8 -13 -108 -96 -185 -132 -109 -50 -198 -68 -336 -68 -155 0 -279 24 -387
76 -20 10 -37 21 -37 26 0 4 -6 8 -13 8 -16 0 -140 110 -133 118 3 2 25 -14
48 -37 40 -38 58 -49 58 -35 0 3 -17 21 -37 40 -25 22 -34 37 -27 42 24 16 -1
82 -31 82 -8 0 -15 -6 -18 -12 -3 -10 -7 -10 -17 -2 -9 9 -5 14 20 19 30 7 30
8 13 20 -20 14 -47 15 -59 2 -4 -4 3 -7 16 -7 29 0 21 -9 -12 -15 -21 -4 -27
2 -46 48 -43 102 -50 204 -24 324 26 119 135 253 252 310 98 48 161 58 251 42
l74 -13 -75 -6 c-83 -7 -132 -21 -192 -55 -98 -56 -166 -156 -189 -280 -15
-78 -5 -246 17 -309 26 -76 60 -133 104 -176 25 -26 39 -80 19 -80 -5 0 -7 4
-4 10 3 5 0 20 -6 32 l-13 23 -6 -25 c-5 -19 0 -30 18 -44 16 -13 26 -15 31
-8 5 8 15 7 36 -4 29 -15 29 -15 10 6 -10 11 -24 20 -32 20 -7 0 -13 5 -13 10
0 16 15 12 44 -11 32 -25 131 -66 206 -85 122 -30 280 -9 405 55 43 21 85 37
94 34 13 -4 13 -3 2 5 -11 8 -6 17 24 44 21 18 41 35 45 38 14 9 85 125 98
160 8 19 21 74 30 121 14 75 14 96 2 160 -16 87 -63 194 -115 264 -52 70 -172
166 -392 313 -320 215 -412 333 -428 547 -11 133 11 224 78 333 82 132 227
220 428 256 98 18 89 18 211 1z m696 -508 c57 -118 86 -218 79 -275 -9 -70
-40 -157 -73 -199 l-29 -38 -7 45 c-3 25 -7 99 -8 165 -3 194 -15 188 -28 -14
-6 -101 -13 -186 -16 -189 -22 -21 -81 98 -98 195 -10 63 -10 78 7 135 25 84
113 271 124 263 5 -3 27 -42 49 -88z m-341 -162 c58 -27 84 -60 103 -133 26
-101 51 -166 75 -198 25 -33 25 -34 5 -34 -57 0 -152 78 -177 145 -19 50 -43
133 -43 147 0 7 -6 24 -13 38 -36 69 -30 73 50 35z m633 -15 c-11 -22 -27 -65
-35 -96 -35 -135 -78 -203 -149 -235 -39 -18 -102 -27 -81 -11 33 22 67 99
109 243 21 74 92 138 154 139 l22 0 -20 -40z m-330 -464 c5 -13 13 -66 19
-117 11 -101 -1 -224 -34 -363 -9 -37 -14 -70 -12 -73 3 -2 23 29 45 70 52 94
129 179 187 206 47 22 105 28 105 11 0 -5 -6 -10 -13 -10 -19 0 -126 -76 -160
-114 -43 -47 -108 -149 -169 -267 -56 -107 -135 -229 -150 -229 -4 0 -8 -6 -8
-13 0 -7 -32 -44 -72 -82 -69 -68 -66 -49 5 27 19 21 32 40 29 42 -3 3 0 12 7
19 14 18 104 201 120 247 7 19 17 44 21 55 11 27 35 115 55 202 13 56 16 105
12 220 -2 81 -8 158 -12 171 -10 31 13 29 25 -2z m-2006 -588 c-9 -14 -24 2
-24 25 1 21 1 21 15 3 8 -10 12 -23 9 -28z m56 -27 c12 -31 5 -75 -11 -66 -10
7 -12 -8 -2 -18 3 -4 11 1 18 9 10 14 17 7 48 -50 21 -37 37 -71 37 -76 0 -5
7 -16 16 -25 9 -9 13 -19 10 -23 -4 -3 -11 -1 -15 7 -5 7 -10 12 -12 12 -23
-3 -53 18 -69 50 -24 47 -24 47 -2 45 18 -1 19 30 0 49 -6 7 -7 1 -3 -18 11
-42 -21 -24 -45 26 -24 49 -24 54 -5 54 8 0 15 -6 15 -14 0 -7 5 -13 10 -13
16 0 12 15 -10 40 -23 27 -25 40 -6 40 7 0 19 -13 26 -29z m176 -328 c21 -28
16 -39 -6 -15 -11 12 -20 24 -20 27 0 11 13 4 26 -12z m184 -3 c15 -21 40 -27
40 -10 0 6 5 10 10 10 15 0 12 -16 -6 -34 -22 -23 -30 -20 -53 19 -22 37 -15
49 9 15z m-140 -55 c14 -16 10 -18 -14 -9 -9 3 -16 10 -16 15 0 14 16 11 30
-6z m-1646 -991 c8 -20 9 -19 -29 -28 -20 -5 -27 -4 -20 2 6 6 19 12 30 15 17
4 16 5 -5 6 -20 1 -22 3 -10 11 21 14 27 12 34 -6z m142 -7 c4 -4 -6 -5 -22
-3 -16 2 -22 1 -14 -1 8 -3 20 -10 25 -15 7 -8 4 -9 -10 -3 -11 4 -39 10 -62
12 -24 3 -43 8 -43 12 0 9 117 7 126 -2z m1474 -88 c19 -46 19 -47 -1 -52 -10
-3 -22 -1 -25 4 -3 5 -9 7 -14 4 -5 -3 -12 -1 -15 5 -4 7 2 10 17 8 12 -2 23
2 23 7 0 6 -4 9 -9 7 -5 -2 -6 4 -2 13 9 24 -4 65 -20 65 -16 0 -16 2 -8 25 7
18 22 -5 54 -86z m2639 44 c60 -152 104 -260 113 -283 42 -97 105 -256 103
-258 -2 -2 -13 6 -24 17 -23 23 -37 26 -46 11 -4 -6 5 -10 19 -10 25 0 31 -8
27 -37 -1 -7 3 -13 9 -13 5 0 10 5 10 11 0 20 20 -2 36 -39 8 -20 20 -40 27
-44 7 -4 -33 -7 -88 -7 -55 0 -94 3 -87 6 6 2 12 11 12 19 0 8 6 14 13 14 9 0
9 2 -1 8 -7 5 -21 31 -31 58 -10 27 -22 57 -26 66 -5 13 0 17 22 21 15 2 -40
5 -123 6 -111 1 -154 -2 -162 -11 -18 -23 -54 -141 -49 -165 4 -21 1 -23 -45
-23 -45 0 -48 1 -34 16 18 18 41 66 81 169 14 39 30 79 35 90 26 58 135 338
165 423 9 24 22 11 44 -45z m-3354 29 c-3 -3 -11 0 -18 7 -9 10 -8 11 6 5 10
-3 15 -9 12 -12z m1578 7 c34 -1 50 -4 35 -6 -31 -5 -61 -33 -35 -33 19 0 33
-38 18 -53 -12 -12 -41 8 -41 29 0 16 -35 54 -49 54 -6 0 -13 5 -17 12 -5 8
-2 9 10 5 10 -4 45 -8 79 -8z m1412 -1 c-42 -16 -55 -31 -120 -138 -66 -108
-85 -133 -85 -109 0 8 6 21 13 29 10 12 9 12 -6 0 -13 -9 -16 -21 -12 -38 7
-29 -10 -53 -33 -45 -13 4 -14 3 -4 -5 11 -8 10 -17 -7 -51 -12 -23 -19 -46
-16 -51 3 -6 -1 -10 -10 -10 -9 0 -13 5 -10 10 4 6 1 9 -7 8 -8 -2 -12 5 -10
20 2 12 -2 22 -8 22 -7 0 -10 -6 -7 -14 3 -7 0 -19 -6 -25 -6 -6 -8 -12 -4
-12 53 -10 57 -17 57 -108 0 -91 11 -149 32 -163 7 -4 -32 -7 -87 -7 -55 1
-92 3 -82 6 9 2 15 9 12 14 -4 5 -1 9 4 9 7 0 11 45 11 130 0 140 2 132 -73
255 -80 130 -99 166 -93 172 2 3 12 -7 21 -21 10 -14 25 -26 34 -26 14 1 14 2
-1 11 -10 5 -18 14 -18 19 0 9 27 20 44 19 5 0 12 5 16 12 5 8 21 -9 47 -50
95 -154 113 -181 120 -181 5 0 36 46 70 103 67 111 99 155 89 125 -3 -10 -1
-18 4 -18 5 0 7 25 5 55 l-4 54 57 4 c31 2 66 4 77 4 13 1 9 -3 -10 -9z m1490
-11 l-25 -19 0 -313 c0 -313 0 -314 22 -329 21 -15 16 -16 -77 -16 -81 0 -96
2 -82 13 15 10 17 32 19 152 0 77 4 147 8 155 7 13 -16 15 -186 12 l-194 -3 0
-144 c0 -132 2 -147 20 -165 l20 -20 -97 0 c-54 0 -93 4 -87 8 18 11 30 72 28
142 -1 36 -2 163 -3 283 -1 203 -2 218 -21 237 l-20 20 101 0 c98 0 100 -1 80
-17 -19 -17 -21 -29 -22 -163 l-1 -145 182 -5 c110 -3 184 -1 188 5 3 5 5 76
4 158 -1 81 1 146 5 144 5 -3 17 0 28 4 15 7 11 8 -15 5 -20 -2 -43 1 -51 7
-13 9 8 12 93 12 107 0 108 0 83 -18z m-4827 6 c-21 -2 -57 -2 -80 0 -24 2 -7
4 37 4 44 0 63 -2 43 -4z m510 0 c-15 -2 -42 -2 -60 0 -18 2 -6 4 27 4 33 0
48 -2 33 -4z m1170 -4 c-10 -5 -18 -19 -18 -29 0 -11 -4 -20 -10 -20 -5 0 -10
5 -10 10 0 6 -7 10 -15 10 -8 0 -15 5 -15 11 0 6 9 8 21 4 15 -5 19 -4 15 4
-4 6 -32 10 -64 10 -31 -1 -46 -4 -32 -6 22 -5 49 -28 50 -44 0 -4 -10 -9 -22
-13 -31 -7 -36 -62 -8 -71 11 -4 20 -11 20 -16 0 -5 11 -9 25 -9 20 0 25 5 25
26 0 14 -7 32 -15 40 -21 22 -19 31 8 32 l22 0 -2 -177 c-1 -97 -3 -190 -3
-208 0 -24 -4 -31 -14 -27 -8 3 -17 1 -21 -5 -3 -7 2 -11 14 -11 15 0 21 -7
22 -22 0 -13 2 -35 4 -50 2 -15 -1 -30 -6 -33 -9 -6 -10 -4 -13 53 -1 20 -9
38 -18 43 -10 5 -15 15 -12 23 7 18 -20 38 -41 30 -10 -4 -15 -14 -12 -25 3
-11 1 -19 -4 -19 -5 0 -9 94 -9 216 0 194 2 218 18 231 16 14 16 14 0 9 -10
-3 -23 2 -30 13 -7 10 -20 20 -28 24 -8 3 32 6 90 6 76 0 100 -2 88 -10z m359
5 c-3 -3 -12 -4 -19 -1 -8 3 -5 6 6 6 11 1 17 -2 13 -5z m461 -1 c-15 -2 -42
-2 -60 0 -18 2 -6 4 27 4 33 0 48 -2 33 -4z m367 0 c-11 -2 -29 -6 -40 -8 -26
-5 -28 -53 -2 -61 21 -7 22 -20 1 -28 -9 -3 -12 -2 -9 4 4 7 -3 9 -19 6 -15
-3 -30 2 -38 12 -11 14 -10 15 5 9 13 -5 17 -3 14 5 -2 7 -11 12 -20 10 -9 -1
-21 7 -27 18 -6 12 -21 25 -33 30 -15 6 13 9 83 8 58 0 96 -2 85 -5z m-3535
-23 c0 -5 -4 -10 -10 -10 -5 0 -10 5 -10 10 0 6 5 10 10 10 6 0 10 -4 10 -10z
m565 -87 c0 -51 -3 -93 -7 -93 -4 0 -8 42 -10 93 -2 58 1 94 7 94 6 0 10 -38
10 -94z m494 20 c1 -42 4 -80 7 -84 2 -4 0 -10 -6 -14 -6 -4 -10 7 -11 27 -1
18 -3 59 -5 91 -2 31 0 57 5 57 4 0 8 -35 10 -77z m1648 37 c8 -33 8 -37 -8
-33 -10 3 -18 8 -17 12 0 3 0 13 -1 21 -1 13 -3 13 -10 1 -5 -8 -6 -22 -2 -30
14 -26 -1 -50 -24 -40 -12 4 -14 8 -5 8 11 1 11 4 2 13 -8 8 -8 16 -2 23 7 8
4 19 -10 35 -11 13 -20 23 -20 24 0 1 20 1 43 2 42 1 44 0 54 -36z m450 30
c-9 -17 -69 -145 -81 -175 -17 -39 -31 -48 -21 -12 5 15 4 19 -3 12 -15 -15
-25 -55 -13 -55 10 0 -7 -53 -34 -102 -8 -14 -15 -33 -15 -42 0 -9 -4 -16 -10
-16 -5 0 -10 -7 -10 -15 0 -27 -23 -66 -37 -61 -7 3 -13 1 -13 -3 0 -5 5 -11
10 -13 7 -2 1 -25 -14 -58 -16 -36 -25 -48 -25 -33 -1 12 4 25 10 28 6 4 7 19
4 35 -3 16 -2 37 4 47 5 10 26 59 46 108 20 50 40 99 45 110 4 11 11 27 13 35
3 8 22 53 41 100 20 46 36 92 36 100 0 12 9 16 35 16 19 -1 34 -3 32 -6z m383
1 c0 -5 3 -16 6 -24 3 -8 -2 -17 -13 -21 -20 -8 -45 18 -36 40 6 15 43 20 43
5z m-3490 -5 c0 -2 -8 -10 -17 -17 -16 -13 -17 -12 -4 4 13 16 21 21 21 13z
m1634 -12 c3 -9 6 -17 6 -18 0 -1 -9 -2 -20 -2 -11 0 -20 1 -20 2 0 11 14 34
20 34 4 0 11 -7 14 -16z m-1734 -34 c-6 -11 -13 -20 -16 -20 -2 0 0 9 6 20 6
11 13 20 16 20 2 0 0 -9 -6 -20z m1698 -30 c1 -27 -13 -48 -24 -38 -4 5 15 68
20 68 2 0 3 -13 4 -30z m-488 -30 c0 -27 -4 -50 -9 -50 -6 0 -9 23 -9 50 1 28
5 50 10 50 4 0 8 -22 8 -50z m1587 -29 c13 -31 36 -86 49 -123 13 -36 31 -79
39 -94 8 -15 12 -31 9 -36 -3 -4 0 -8 5 -8 6 0 11 -4 11 -10 0 -16 -26 -12
-41 6 -7 9 -22 14 -36 11 -17 -3 -21 -1 -13 8 7 9 6 16 -5 25 -20 17 -19 23 9
40 24 15 24 16 9 48 -10 20 -23 32 -37 33 l-21 1 21 6 c17 6 20 11 13 30 -8
22 -39 31 -39 12 0 -5 8 -10 17 -10 12 0 14 -3 6 -11 -16 -16 -33 -2 -33 26 0
18 -4 23 -15 19 -8 -4 -15 -1 -15 5 0 6 11 13 25 17 26 6 32 18 15 29 -5 3
-10 1 -10 -5 0 -6 -4 -8 -10 -5 -5 3 -10 17 -10 30 0 41 29 18 57 -44z m-89
14 c14 4 22 2 22 -5 0 -7 -9 -14 -19 -17 -17 -4 -18 -9 -9 -29 9 -20 14 -22
26 -11 13 10 14 7 8 -28 -5 -29 -4 -36 3 -25 13 18 14 1 2 -18 -10 -17 -21 -3
-45 58 -10 25 -24 57 -32 72 -20 37 -17 48 5 19 13 -17 23 -22 39 -16z m-363
15 c3 -5 1 -10 -4 -10 -6 0 -11 5 -11 10 0 6 2 10 4 10 3 0 8 -4 11 -10z
m-525 -40 c0 -9 3 -20 7 -24 7 -7 43 -96 43 -107 0 -3 -14 -6 -30 -6 -18 0
-36 -7 -44 -19 -17 -23 -22 -19 -31 21 -5 24 -4 27 5 13 10 -17 13 -17 40 -3
17 9 30 12 30 9 0 -4 2 -5 5 -2 3 3 3 13 -1 22 -7 18 -54 22 -54 5 0 -8 -5 -8
-15 1 -12 10 -15 10 -15 -1 0 -21 -15 1 -33 49 -9 23 -13 42 -8 42 5 0 12 -14
16 -30 8 -36 30 -50 68 -43 25 5 39 23 17 23 -5 0 -10 9 -10 20 0 12 -7 20
-17 21 -13 0 -14 2 -4 6 10 4 11 7 1 13 -7 4 -9 13 -5 19 9 16 35 -5 35 -29z
m-70 20 c0 -5 -5 -10 -11 -10 -5 0 -7 5 -4 10 3 6 8 10 11 10 2 0 4 -4 4 -10z
m-67 -10 c-13 -5 -23 -14 -23 -20 0 -6 5 -8 10 -5 6 3 10 -1 10 -9 0 -8 -4
-18 -10 -21 -5 -3 -10 0 -10 7 0 9 -3 9 -10 -2 -13 -20 -12 -10 1 29 8 22 17
31 32 30 22 0 22 0 0 -9z m-1679 -70 c10 -13 9 -13 -6 -1 -10 7 -18 21 -17 30
0 13 1 14 6 1 3 -8 11 -22 17 -30z m111 22 c-3 -3 -11 0 -18 7 -9 10 -8 11 6
5 10 -3 15 -9 12 -12z m1095 -7 c0 -14 -4 -25 -10 -25 -5 0 -10 11 -10 25 0
14 5 25 10 25 6 0 10 -11 10 -25z m-95 -70 c-2 -5 -6 -22 -9 -37 l-6 -28 -177
0 c-97 0 -174 2 -171 5 2 3 65 5 139 6 73 0 139 5 145 10 6 5 22 8 35 7 23 -3
24 0 25 52 2 74 5 82 14 35 4 -22 6 -44 5 -50z m680 76 c3 -5 1 -12 -5 -16 -5
-3 -10 1 -10 9 0 18 6 21 15 7z m-1145 -11 c0 -5 -7 -10 -15 -10 -8 0 -15 5
-15 10 0 6 7 10 15 10 8 0 15 -4 15 -10z m-479 -17 c13 -15 12 -15 -8 -4 -24
12 -29 21 -14 21 5 0 15 -7 22 -17z m454 -13 c-3 -5 3 -11 12 -13 11 -3 8 -5
-9 -6 -22 -1 -28 4 -28 19 0 13 5 18 15 14 8 -4 13 -10 10 -14z m1029 -2 c-3
-13 -10 -30 -15 -38 -7 -13 -8 -13 -9 0 0 8 -7 2 -15 -14 -19 -36 -19 -57 0
-32 17 23 20 14 4 -15 -5 -11 -14 -17 -19 -14 -5 3 -13 -3 -19 -12 -15 -27
-13 -1 3 33 7 16 22 48 32 72 19 44 51 61 38 20z m-1579 -56 c-3 -3 -20 9 -38
27 l-32 34 38 -28 c21 -15 35 -30 32 -33z m1135 37 c0 -11 -4 -18 -10 -14 -5
3 -7 12 -3 20 7 21 13 19 13 -6z m-943 -25 c53 -36 54 -40 6 -15 -23 11 -44
25 -48 31 -10 16 1 12 42 -16z m904 -15 c10 -6 8 -9 -8 -9 -17 0 -23 6 -23 23
0 16 3 18 9 8 5 -7 15 -17 22 -22z m1649 11 c0 -5 -4 -10 -10 -10 -5 0 -10 5
-10 10 0 6 5 10 10 10 6 0 10 -4 10 -10z m-60 -31 c0 -6 -4 -7 -10 -4 -5 3
-10 11 -10 16 0 6 5 7 10 4 6 -3 10 -11 10 -16z m33 7 c4 -10 1 -13 -8 -9 -8
3 -12 9 -9 14 7 12 11 11 17 -5z m-2173 0 c0 -3 -4 -8 -10 -11 -5 -3 -10 -1
-10 4 0 6 5 11 10 11 6 0 10 -2 10 -4z m1286 -52 c26 -54 28 -85 3 -45 -11 16
-16 18 -28 8 -12 -10 -13 -9 -4 8 15 27 5 73 -16 78 -14 4 -14 5 1 6 12 1 26
-17 44 -55z m-1561 26 c10 -11 16 -20 13 -20 -3 0 -13 9 -23 20 -10 11 -16 20
-13 20 3 0 13 -9 23 -20z m865 -40 c0 -50 -3 -58 -16 -53 -11 4 -12 9 -5 16
16 16 13 67 -4 73 -22 9 -18 24 5 24 18 0 20 -7 20 -60z m-1055 40 c3 -5 2
-10 -4 -10 -5 0 -13 5 -16 10 -3 6 -2 10 4 10 5 0 13 -4 16 -10z m2629 -32 c6
-4 7 -10 3 -15 -10 -9 -27 16 -26 37 1 13 1 13 6 0 3 -8 11 -18 17 -22z
m-2169 13 c3 -5 1 -12 -5 -16 -5 -3 -10 1 -10 9 0 18 6 21 15 7z m1195 -24 c0
-18 -2 -19 -10 -7 -13 20 -13 43 0 35 6 -3 10 -16 10 -28z m-698 -73 c-2 -30
-6 -53 -9 -51 -6 7 -10 137 -4 143 10 10 16 -35 13 -92z m-866 49 c-7 -7 -26
7 -26 19 0 6 6 6 15 -2 9 -7 13 -15 11 -17z m464 -3 c0 -5 -4 -10 -10 -10 -5
0 -10 5 -10 10 0 6 5 10 10 10 6 0 10 -4 10 -10z m880 -2 c0 -4 -7 -8 -15 -8
-8 0 -15 4 -15 8 0 5 7 9 15 9 8 0 15 -4 15 -9z m260 2 c0 -5 9 -10 20 -10 11
0 20 -5 20 -11 0 -6 -7 -8 -16 -5 -9 3 -22 6 -30 6 -8 0 -14 7 -14 15 0 8 5
15 10 15 6 0 10 -4 10 -10z m960 -39 c0 -21 -16 -2 -24 29 -7 24 -6 24 8 6 9
-11 16 -27 16 -35z m40 19 c0 -5 -4 -10 -10 -10 -5 0 -10 5 -10 10 0 6 5 10
10 10 6 0 10 -4 10 -10z m-1262 -31 c26 -1 26 -1 4 -8 -13 -3 -30 -17 -37 -31
-8 -14 -14 -19 -15 -11 0 11 -3 11 -16 1 -13 -12 -14 -10 -3 14 11 24 14 25
19 10 6 -17 7 -16 14 1 4 11 2 21 -5 26 -7 4 -8 12 -3 20 7 11 9 10 12 -3 2
-12 13 -18 30 -19z m187 10 c-29 -8 -28 -8 8 -6 20 2 37 -1 37 -5 0 -4 -46 -7
-102 -6 -84 1 -92 3 -43 7 l60 5 -70 6 c-65 6 -63 7 35 7 72 0 96 -2 75 -8z
m1153 -20 c2 -19 -2 -25 -18 -25 -11 0 -20 6 -20 13 0 7 7 10 15 7 18 -7 20 7
3 25 -11 11 -10 13 2 9 8 -3 16 -16 18 -29z m-1725 -120 c-4 -4 -9 18 -11 49
-2 31 -9 60 -15 65 -8 6 -6 7 6 3 11 -4 18 0 19 12 1 9 4 -14 5 -52 2 -38 0
-73 -4 -77z m667 131 c0 -5 -7 -10 -16 -10 -8 0 -12 5 -9 10 3 6 10 10 16 10
5 0 9 -4 9 -10z m90 -32 c0 -4 -7 -8 -15 -8 -9 0 -26 -6 -38 -13 -31 -19 -61
-16 -65 7 -3 13 0 16 10 10 20 -13 48 -15 48 -4 0 6 9 10 21 10 16 0 19 4 14
23 -6 21 -6 21 9 3 9 -11 16 -23 16 -28z m-1310 8 c0 -3 -4 -8 -10 -11 -5 -3
-10 -1 -10 4 0 6 5 11 10 11 6 0 10 -2 10 -4z m2200 -57 c0 -11 5 -16 13 -14
7 3 13 -4 13 -17 1 -13 9 -39 18 -58 14 -31 16 -32 13 -8 -3 19 0 25 10 21 16
-6 16 -23 -1 -46 -13 -16 -14 -16 -30 7 -9 14 -16 30 -16 36 0 5 -10 32 -23
58 -37 76 -41 92 -17 63 11 -13 20 -32 20 -42z m-549 38 c-1 -12 -15 -9 -19 4
-3 6 1 10 8 8 6 -3 11 -8 11 -12z m-1974 -44 c-3 -10 -5 -4 -5 12 0 17 2 24 5
18 2 -7 2 -21 0 -30z m285 15 c-7 -7 -12 -8 -12 -2 0 6 3 14 7 17 3 4 9 5 12
2 2 -3 -1 -11 -7 -17z m2288 12 c8 -5 12 -11 9 -14 -3 -3 -14 1 -25 9 -21 16
-8 20 16 5z m-1790 -34 c0 -19 6 -36 13 -39 6 -2 10 -7 7 -10 -3 -3 -11 -2
-19 2 -14 9 -23 81 -10 81 5 0 9 -15 9 -34z m864 18 c9 -23 7 -34 -4 -34 -5 0
-7 6 -4 14 8 20 -14 30 -31 16 -9 -8 -15 -8 -15 -2 0 23 46 28 54 6z m356 1
c0 -8 -6 -15 -14 -15 -17 0 -28 14 -19 24 12 12 33 6 33 -9z m-2353 -27 c-3
-7 -5 -2 -5 12 0 14 2 19 5 13 2 -7 2 -19 0 -25z m1553 -7 c-6 -12 -17 -21
-25 -21 -7 0 -16 -6 -18 -12 -4 -9 -6 -8 -6 3 -1 8 6 24 15 35 8 10 13 13 9 7
-3 -7 -1 -13 5 -13 6 0 13 7 17 15 3 9 8 14 10 11 3 -2 0 -14 -7 -25z m742
-16 c-5 -28 -1 -30 31 -14 20 9 20 9 5 -4 -10 -8 -18 -21 -18 -30 0 -10 -5
-14 -15 -11 -10 4 -15 20 -15 51 0 24 4 42 9 39 4 -3 6 -17 3 -31z m642 21
c-10 -8 -21 -12 -24 -10 -5 6 21 24 34 24 6 0 1 -6 -10 -14z m-1020 -46 l-3
-50 67 1 c37 1 55 4 40 6 -29 4 -31 11 -18 53 6 22 8 23 15 7 4 -10 2 -24 -5
-32 -10 -12 -9 -15 6 -15 11 0 28 -7 38 -15 18 -14 10 -15 -80 -15 -61 0 -94
4 -85 9 10 6 12 19 8 41 -5 25 3 53 19 60 0 0 -1 -22 -2 -50z m56 40 c0 -5 -7
-7 -15 -4 -8 4 -15 8 -15 10 0 2 7 4 15 4 8 0 15 -4 15 -10z m-1584 -38 c-18
-16 -18 -16 -6 6 6 13 14 21 18 18 3 -4 -2 -14 -12 -24z m-46 8 c0 -5 -5 -10
-11 -10 -5 0 -7 5 -4 10 3 6 8 10 11 10 2 0 4 -4 4 -10z m287 -32 c-3 -7 -5
-2 -5 12 0 14 2 19 5 13 2 -7 2 -19 0 -25z m1773 7 c0 -7 7 -21 16 -29 14 -15
7 -16 -82 -16 -54 0 -94 3 -90 7 4 4 38 6 77 5 38 -2 69 -1 69 2 0 2 -3 12 -6
20 -5 13 -9 14 -20 5 -10 -8 -14 -8 -14 -1 0 13 32 32 42 26 5 -3 8 -11 8 -19z
m-1270 0 c10 -12 10 -15 -4 -15 -9 0 -16 7 -16 15 0 8 2 15 4 15 2 0 9 -7 16
-15z m368 -13 c-31 -6 -19 -21 20 -25 24 -2 16 -4 -23 -5 -33 0 -53 2 -45 5 8
4 21 15 28 25 8 10 18 15 25 11 8 -5 7 -9 -5 -11z m459 -4 c-3 -8 -6 -5 -6 6
-1 11 2 17 5 13 3 -3 4 -12 1 -19z m-1953 -3 c3 -8 1 -15 -4 -15 -6 0 -10 7
-10 15 0 8 2 15 4 15 2 0 6 -7 10 -15z m346 5 c0 -5 -5 -10 -11 -10 -5 0 -7 5
-4 10 3 6 8 10 11 10 2 0 4 -4 4 -10z m395 0 c3 -5 -1 -10 -10 -10 -9 0 -13 5
-10 10 3 6 8 10 10 10 2 0 7 -4 10 -10z m515 -23 c8 -3 -30 -6 -84 -6 -55 -1
-96 2 -92 6 4 4 37 6 73 4 60 -3 65 -1 59 15 -6 16 -5 17 11 2 10 -8 25 -18
33 -21z m-1015 3 c-3 -5 -16 -10 -28 -9 -21 0 -21 1 -2 9 28 12 37 12 30 0z
m-160 -10 c19 -8 19 -9 -2 -9 -12 -1 -25 4 -28 9 -7 12 2 12 30 0z m215 0 c0
-5 -8 -10 -17 -10 -15 0 -16 2 -3 10 19 12 20 12 20 0z m428 3 c-26 -2 -71 -2
-100 0 -29 2 -8 3 47 3 55 0 79 -1 53 -3z m-475 -20 c-7 -2 -21 -2 -30 0 -10
3 -4 5 12 5 17 0 24 -2 18 -5z m227 -368 c-30 -17 -40 -18 -40 -4 0 5 4 8 9 4
5 -3 12 -1 16 5 3 5 14 10 23 10 12 -1 10 -5 -8 -15z m70 5 c0 -13 -11 -13
-30 0 -12 8 -11 10 8 10 12 0 22 -4 22 -10z m122 -35 c-5 -45 -9 -44 -14 4 -2
24 1 37 7 34 6 -2 9 -19 7 -38z m273 38 c-16 -3 -36 -9 -43 -15 -14 -12 -12
-59 3 -70 13 -9 2 -19 -11 -10 -6 4 -13 27 -16 52 l-5 45 51 1 c28 1 38 -1 21
-3z m245 -2 c-53 -9 -80 -33 -85 -74 -6 -44 9 -86 38 -109 12 -10 17 -18 10
-18 -6 0 -25 12 -42 26 -27 22 -31 32 -31 72 1 70 43 112 110 110 l35 -1 -35
-6z m490 -52 c14 -21 28 -39 32 -39 4 0 15 -14 23 -30 9 -17 20 -28 25 -25 6
4 10 -6 10 -21 0 -26 -1 -25 -35 17 -20 24 -50 63 -67 86 -17 24 -34 40 -37
37 -3 -3 -9 -45 -12 -92 l-6 -87 -1 107 -2 108 23 -11 c13 -6 34 -28 47 -50z
m97 39 c-3 -8 -6 -5 -6 6 -1 11 2 17 5 13 3 -3 4 -12 1 -19z m199 12 c-24 -4
-47 -17 -58 -31 -10 -13 -22 -28 -26 -34 -13 -14 12 -77 44 -109 28 -28 28
-28 3 -21 -26 9 -45 28 -59 63 -17 41 -11 70 24 106 28 30 40 36 72 35 l39 -1
-39 -8z m284 1 c0 -5 -9 -7 -20 -4 -11 3 -31 2 -46 -1 -23 -6 -26 -11 -22 -46
2 -22 1 -40 -2 -40 -10 0 -5 -95 5 -102 6 -4 2 -8 -7 -8 -16 0 -18 11 -18 99
0 70 4 101 13 104 21 9 97 7 97 -2z m245 -158 c-12 -66 -22 -40 -21 55 1 113
19 147 24 44 2 -37 0 -81 -3 -99z m148 153 c9 -7 17 -16 17 -20 0 -3 8 -14 18
-25 9 -10 28 -33 42 -51 14 -19 31 -39 38 -46 6 -7 12 -21 12 -31 0 -14 -5
-12 -26 12 -14 17 -34 41 -46 54 -11 13 -29 39 -40 57 -11 19 -24 31 -29 28
-5 -3 -9 -3 -9 0 0 2 -3 11 -6 20 -7 19 5 20 29 2z m137 -2 c0 -8 -4 -12 -10
-9 -5 3 -10 10 -10 16 0 5 5 9 10 9 6 0 10 -7 10 -16z m330 7 c0 -5 -9 -7 -20
-4 -11 3 -30 3 -43 -1 -23 -5 -24 -9 -23 -88 1 -46 5 -89 9 -95 6 -9 2 -13
-12 -13 -20 0 -21 6 -21 89 0 49 -2 96 -5 104 -5 11 7 14 55 16 33 1 60 -3 60
-8z m120 -7 c0 -8 11 -39 25 -71 14 -31 23 -63 21 -70 -4 -11 -1 -11 14 -3 18
10 19 9 8 -15 -13 -29 -24 -32 -31 -7 -3 9 -19 53 -36 97 -17 44 -31 80 -31
81 0 0 7 1 15 1 8 0 15 -6 15 -13z m134 1 c-4 -8 -8 -15 -10 -15 -2 0 -4 7 -4
15 0 8 4 15 10 15 5 0 7 -7 4 -15z m216 5 c0 -6 -19 -9 -42 -8 -40 3 -43 1
-46 -25 -2 -16 2 -34 8 -42 7 -8 7 -15 1 -19 -5 -3 -8 -17 -7 -30 2 -14 0 -30
-5 -37 -4 -8 -3 -19 2 -25 7 -9 5 -12 -6 -10 -14 2 -17 19 -18 104 l-2 102 58
0 c32 0 57 -4 57 -10z m215 -10 c23 -19 19 -65 -7 -83 -23 -14 -23 -15 -4 -36
11 -11 15 -21 11 -21 -4 0 2 -9 15 -20 13 -11 21 -22 18 -25 -11 -12 -35 8
-60 49 -25 41 -25 44 -8 49 20 5 36 47 27 71 -7 17 -57 30 -69 18 -11 -11 -14
-165 -3 -181 3 -6 2 -11 -4 -11 -14 0 -20 30 -23 126 l-3 81 48 -2 c26 -2 54
-8 62 -15z m137 7 c7 -8 22 -30 33 -50 11 -20 23 -37 27 -37 5 0 8 -25 8 -56
0 -71 -22 -70 -31 2 -4 27 -16 65 -27 84 -12 19 -26 43 -32 53 -13 20 2 23 22
4z m128 4 c0 -6 -4 -13 -10 -16 -5 -3 -10 1 -10 9 0 9 5 16 10 16 6 0 10 -4
10 -9z m330 1 c0 -5 -19 -8 -42 -8 -42 1 -43 0 -49 -37 -3 -21 -3 -39 0 -42
10 -6 -3 -108 -14 -112 -6 -2 -10 36 -10 102 l0 105 58 0 c31 0 57 -4 57 -8z
m246 -26 c35 -35 42 -64 25 -109 -12 -31 -50 -67 -70 -67 -10 1 -5 7 11 16 33
17 43 49 34 108 -8 50 -28 72 -71 79 l-30 4 34 2 c25 1 41 -7 67 -33z m149
-64 l0 -97 42 1 c23 0 40 -3 37 -8 -3 -5 -27 -8 -52 -6 l-47 3 0 102 c0 63 4
103 10 103 6 0 10 -39 10 -98z m250 89 l-30 -6 0 -93 c0 -68 -3 -92 -13 -92
-9 0 -12 23 -11 89 1 49 -1 93 -4 99 -4 5 15 9 41 9 38 1 41 0 17 -6z m-3597
-51 c-2 -5 -11 -3 -21 4 -10 8 -15 20 -11 30 6 15 8 15 21 -4 8 -11 13 -25 11
-30z m3078 28 c-19 -27 -21 -118 -3 -140 6 -8 21 -20 32 -26 11 -6 14 -12 7
-12 -40 -1 -82 54 -82 107 0 27 22 70 44 85 18 12 18 9 2 -14z m597 -4 c21
-21 26 -35 25 -74 0 -53 -21 -82 -68 -95 -22 -6 -21 -4 7 13 51 33 56 119 10
162 -11 11 -16 20 -10 20 6 0 22 -12 36 -26z m-2334 -41 c0 -25 -1 -26 -9 -8
-12 27 -12 35 0 35 6 0 10 -12 9 -27z m-2326 -21 c-1 -5 -3 -26 -5 -46 -3 -55
-18 -43 -18 15 0 36 4 49 13 46 6 -2 11 -9 10 -15z m1001 2 c3 -9 3 -21 -1
-26 -3 -7 -1 -8 5 -4 7 4 12 1 12 -9 0 -9 7 -27 16 -40 15 -23 15 -25 0 -25
-10 0 -19 11 -22 30 -6 28 -10 30 -53 31 -44 2 -44 2 -11 8 29 5 34 10 32 29
-4 25 13 30 22 6z m1879 1 c-3 -9 -8 -14 -10 -11 -3 3 -2 9 2 15 9 16 15 13 8
-4z m-2672 -52 c-2 -68 -11 -67 -11 2 0 32 3 55 7 52 3 -4 5 -28 4 -54z m223
-9 c-4 -25 -1 -39 8 -45 10 -6 8 -9 -7 -9 -18 0 -20 5 -17 45 2 25 8 45 13 45
5 0 6 -16 3 -36z m351 3 c0 -8 4 -19 8 -23 13 -13 7 -26 -10 -22 -11 2 -16 14
-17 36 -1 17 4 30 9 29 6 -2 10 -11 10 -20z m-690 -46 c-3 -6 -11 -11 -17 -11
-6 0 -6 6 2 15 14 17 26 13 15 -4z m1705 -1 c0 -5 -5 -10 -11 -10 -5 0 -7 5
-4 10 3 6 8 10 11 10 2 0 4 -4 4 -10z m865 0 c-3 -5 -11 -10 -16 -10 -6 0 -7
5 -4 10 3 6 11 10 16 10 6 0 7 -4 4 -10z m465 0 c0 -5 -8 -10 -17 -10 -15 0
-16 2 -3 10 19 12 20 12 20 0z"/>
<path d="M2397 5193 c-4 -3 -7 -11 -7 -17 0 -6 5 -5 12 2 6 6 9 14 7 17 -3 3
-9 2 -12 -2z"/>
<path d="M2365 5110 c3 -5 8 -10 11 -10 2 0 4 5 4 10 0 6 -5 10 -11 10 -5 0
-7 -4 -4 -10z"/>
<path d="M2270 4736 c0 -22 3 -27 11 -19 8 8 8 16 0 30 -9 16 -10 14 -11 -11z"/>
<path d="M2260 4381 c0 -17 12 -41 20 -41 14 0 7 39 -7 44 -7 3 -13 1 -13 -3z"/>
<path d="M2280 4222 c0 -27 29 -80 30 -55 0 6 -4 15 -10 18 -5 3 -7 19 -3 35
3 19 1 30 -6 30 -6 0 -11 -13 -11 -28z"/>
<path d="M2310 4090 c0 -8 5 -22 10 -30 9 -13 10 -13 10 0 0 8 -5 22 -10 30
-9 13 -10 13 -10 0z"/>
<path d="M2330 4030 c0 -5 5 -10 10 -10 6 0 10 5 10 10 0 6 -4 10 -10 10 -5 0
-10 -4 -10 -10z"/>
<path d="M4506 3491 c-4 -5 -2 -12 3 -15 5 -4 12 -2 15 3 4 5 2 12 -3 15 -5 4
-12 2 -15 -3z"/>
<path d="M2746 3374 c-7 -19 35 -58 46 -41 6 10 -20 56 -33 57 -4 0 -10 -7
-13 -16z"/>
<path d="M4390 3381 c0 -6 4 -13 10 -16 6 -3 7 1 4 9 -7 18 -14 21 -14 7z"/>
<path d="M4360 3356 c0 -2 7 -7 16 -10 8 -3 12 -2 9 4 -6 10 -25 14 -25 6z"/>
<path d="M4220 3240 c8 -5 20 -10 25 -10 6 0 3 5 -5 10 -8 5 -19 10 -25 10 -5
0 -3 -5 5 -10z"/>
<path d="M2942 3233 c-18 -7 -4 -23 19 -23 10 0 19 -7 19 -15 0 -17 9 -19 29
-6 12 8 9 12 -15 23 -16 7 -31 15 -34 19 -3 3 -11 4 -18 2z"/>
<path d="M3030 3179 c0 -11 25 -22 39 -17 6 1 -1 8 -14 15 -14 6 -25 7 -25 2z"/>
<path d="M3076 3153 c-16 -4 -15 -7 10 -24 16 -10 38 -19 49 -18 18 0 18 1 -3
10 -13 5 -21 13 -17 19 4 6 -1 7 -11 3 -12 -4 -15 -3 -10 5 4 7 6 11 4 11 -2
-1 -11 -3 -22 -6z"/>
<path d="M4060 3150 c8 -5 20 -10 25 -10 6 0 3 5 -5 10 -8 5 -19 10 -25 10 -5
0 -3 -5 5 -10z"/>
<path d="M3194 3095 c43 -29 86 -42 86 -26 0 13 -81 51 -107 51 -9 0 1 -11 21
-25z"/>
<path d="M3295 3070 c4 -6 11 -8 16 -5 14 9 11 15 -7 15 -8 0 -12 -5 -9 -10z"/>
<path d="M3335 3060 c-17 -6 -16 -7 8 -12 15 -3 27 -2 27 3 0 13 -14 17 -35 9z"/>
<path d="M3700 3050 c0 -5 7 -10 15 -10 8 0 15 5 15 10 0 6 -7 10 -15 10 -8 0
-15 -4 -15 -10z"/>
<path d="M3539 3039 c-22 -5 -23 -6 -4 -11 11 -4 34 -5 50 -4 17 2 48 4 69 4
22 1 36 5 32 9 -9 9 -114 11 -147 2z"/>
<path d="M3245 4700 c3 -5 11 -10 16 -10 6 0 7 5 4 10 -3 6 -11 10 -16 10 -6
0 -7 -4 -4 -10z"/>
<path d="M3628 4623 c7 -3 16 -2 19 1 4 3 -2 6 -13 5 -11 0 -14 -3 -6 -6z"/>
<path d="M2813 4189 c-1 -10 2 -19 8 -19 11 0 12 27 1 34 -4 2 -9 -4 -9 -15z"/>
<path d="M2757 4132 c-10 -10 -17 -29 -16 -43 0 -13 3 -18 6 -11 2 6 14 12 26
12 20 1 20 2 4 11 -9 6 -15 15 -12 20 4 5 11 7 16 4 5 -4 9 1 9 9 0 21 -13 20
-33 -2z"/>
<path d="M2806 4135 c4 -8 11 -15 16 -15 6 0 5 6 -2 15 -7 8 -14 15 -16 15 -2
0 -1 -7 2 -15z"/>
<path d="M2807 4103 c-4 -3 -7 -11 -7 -17 0 -6 5 -5 12 2 6 6 9 14 7 17 -3 3
-9 2 -12 -2z"/>
<path d="M2770 4054 c0 -13 -7 -15 -32 -10 -26 4 -29 3 -15 -5 23 -13 77 -2
77 17 0 8 -7 14 -15 14 -8 0 -15 -7 -15 -16z"/>
<path d="M2700 3988 c0 -10 7 -18 15 -18 8 0 17 -14 21 -36 4 -19 13 -38 21
-41 23 -9 28 6 7 22 -17 13 -17 14 -2 15 19 0 34 18 23 28 -3 3 -10 0 -15 -8
-7 -11 -12 -12 -20 -4 -9 9 -5 13 14 18 43 11 32 34 -19 38 -38 3 -45 0 -45
-14z"/>
<path d="M2690 3950 c0 -5 5 -10 10 -10 6 0 10 5 10 10 0 6 -4 10 -10 10 -5 0
-10 -4 -10 -10z"/>
<path d="M2680 3891 c0 -11 5 -23 10 -26 6 -3 10 -1 10 4 0 6 7 11 16 11 23 0
11 23 -14 27 -16 2 -22 -2 -22 -16z"/>
<path d="M2718 3859 c-19 -11 -25 -49 -8 -49 6 0 10 9 10 19 0 10 6 18 13 17
14 -1 23 17 10 21 -4 1 -16 -2 -25 -8z"/>
<path d="M2770 3854 c0 -8 5 -12 10 -9 6 4 8 11 5 16 -9 14 -15 11 -15 -7z"/>
<path d="M2732 3818 c2 -6 10 -14 16 -16 7 -2 10 2 6 12 -7 18 -28 22 -22 4z"/>
<path d="M2707 3793 c-11 -10 -8 -43 3 -43 5 0 7 -7 4 -15 -4 -10 0 -15 15
-15 12 0 21 6 21 16 0 9 6 14 13 11 6 -2 11 -12 11 -21 -1 -9 2 -16 7 -16 5 0
9 -4 9 -9 0 -10 -26 -9 -36 2 -4 4 -16 7 -28 7 -35 0 -1 -23 37 -25 19 -1 40
-6 47 -10 10 -6 11 -4 5 11 -4 10 -12 39 -17 64 -13 55 -14 56 -33 40 -12 -10
-19 -10 -27 -2 -14 14 -22 15 -31 5z"/>
<path d="M3998 3793 c7 -3 16 -2 19 1 4 3 -2 6 -13 5 -11 0 -14 -3 -6 -6z"/>
<path d="M3897 3630 c9 -11 19 -17 21 -15 6 6 -18 35 -29 35 -5 0 -1 -9 8 -20z"/>
<path d="M3870 3590 c0 -5 7 -10 15 -10 8 0 15 -4 15 -9 0 -14 29 -21 36 -9 4
6 3 8 -3 5 -5 -3 -17 3 -26 14 -18 20 -37 25 -37 9z"/>
<path d="M3836 3574 c-4 -9 -4 -19 -1 -22 3 -3 5 0 5 6 0 6 8 9 18 6 10 -4 13
-2 7 3 -5 4 -13 12 -16 16 -4 4 -9 0 -13 -9z"/>
<path d="M2867 3553 c-12 -11 -8 -23 7 -23 8 0 16 -6 19 -12 2 -7 7 -10 11 -6
4 3 1 15 -6 27 -14 22 -20 25 -31 14z"/>
<path d="M3895 3540 c3 -5 8 -10 11 -10 2 0 4 5 4 10 0 6 -5 10 -11 10 -5 0
-7 -4 -4 -10z"/>
<path d="M3860 3509 c0 -5 5 -7 10 -4 6 3 10 8 10 11 0 2 -4 4 -10 4 -5 0 -10
-5 -10 -11z"/>
<path d="M3810 3504 c0 -3 6 -12 14 -20 19 -18 27 -18 20 0 -5 14 -34 31 -34
20z"/>
<path d="M3789 3473 c-1 -5 -1 -11 0 -16 1 -4 -17 -14 -39 -23 -22 -9 -40 -20
-40 -25 0 -13 8 -11 50 12 25 14 38 29 37 40 -1 19 -6 25 -8 12z"/>
<path d="M3019 3389 c24 -11 46 -18 48 -15 4 4 -73 36 -85 35 -4 0 13 -9 37
-20z"/>
<path d="M3050 3400 c8 -5 22 -9 30 -9 10 0 8 3 -5 9 -27 12 -43 12 -25 0z"/>
<path d="M3630 3400 c0 -5 5 -10 10 -10 6 0 10 5 10 10 0 6 -4 10 -10 10 -5 0
-10 -4 -10 -10z"/>
<path d="M3578 3379 c-10 -7 -10 -9 1 -9 11 0 9 -4 -5 -16 -18 -14 -18 -15 6
-8 14 4 42 14 63 23 l37 16 -44 1 c-25 0 -51 -3 -58 -7z"/>
<path d="M3094 3369 c-16 -7 -15 -8 7 -8 14 -1 29 -5 35 -9 5 -5 20 -6 33 -3
21 6 19 7 -16 17 -22 6 -48 7 -59 3z"/>
<path d="M3220 3339 c0 -5 5 -7 10 -4 6 3 10 8 10 11 0 2 -4 4 -10 4 -5 0 -10
-5 -10 -11z"/>
<path d="M3480 3340 c0 -5 15 -10 33 -9 27 0 29 2 12 9 -28 12 -45 12 -45 0z"/>
<path d="M3266 3331 c-3 -4 6 -6 19 -3 14 2 25 6 25 8 0 8 -39 4 -44 -5z"/>
<path d="M3325 3330 c-8 -13 15 -13 35 0 12 8 11 10 -7 10 -12 0 -25 -4 -28
-10z"/>
<path d="M3419 3327 c5 -5 19 -7 32 -5 20 3 19 5 -9 9 -20 3 -29 2 -23 -4z"/>
<path d="M4270 3890 c0 -5 5 -10 11 -10 5 0 7 5 4 10 -3 6 -8 10 -11 10 -2 0
-4 -4 -4 -10z"/>
<path d="M2440 3756 c0 -12 40 -46 55 -46 3 0 -2 11 -10 24 -19 29 -45 41 -45
22z"/>
<path d="M5155 2348 c-4 -13 -13 -36 -20 -53 -13 -31 -34 -86 -55 -142 -7 -18
-17 -33 -22 -33 -5 0 -4 -9 2 -20 10 -18 20 -20 111 -18 55 1 103 6 105 9 2 4
-4 29 -15 56 -10 26 -19 50 -19 53 0 3 -5 16 -10 30 -6 14 -21 51 -33 83 -25
62 -34 69 -44 35z"/>
<path d="M5240 2352 c0 -12 19 -26 26 -19 2 2 -2 10 -11 17 -9 8 -15 8 -15 2z"/>
<path d="M5226 2275 c4 -8 8 -15 10 -15 2 0 4 7 4 15 0 8 -4 15 -10 15 -5 0
-7 -7 -4 -15z"/>
<path d="M5285 2220 c-3 -5 -2 -10 4 -10 5 0 13 5 16 10 3 6 2 10 -4 10 -5 0
-13 -4 -16 -10z"/>
<path d="M5305 2160 c4 -6 11 -8 16 -5 14 9 11 15 -7 15 -8 0 -12 -5 -9 -10z"/>
<path d="M5330 2140 c0 -5 5 -10 10 -10 6 0 10 5 10 10 0 6 -4 10 -10 10 -5 0
-10 -4 -10 -10z"/>
<path d="M5290 2126 c0 -2 9 -6 20 -9 11 -3 18 -1 14 4 -5 9 -34 13 -34 5z"/>
<path d="M5330 2090 c0 -5 5 -10 11 -10 5 0 7 5 4 10 -3 6 -8 10 -11 10 -2 0
-4 -4 -4 -10z"/>
<path d="M5103 2063 c32 -2 81 -2 110 0 29 2 3 3 -58 3 -60 0 -84 -1 -52 -3z"/>
<path d="M5388 2043 c7 -3 16 -2 19 1 4 3 -2 6 -13 5 -11 0 -14 -3 -6 -6z"/>
<path d="M5390 1950 c0 -5 7 -10 16 -10 8 0 12 5 9 10 -3 6 -10 10 -16 10 -5
0 -9 -4 -9 -10z"/>
<path d="M5360 1930 c0 -5 5 -10 11 -10 5 0 7 5 4 10 -3 6 -8 10 -11 10 -2 0
-4 -4 -4 -10z"/>
<path d="M5373 1873 c9 -2 25 -2 35 0 9 3 1 5 -18 5 -19 0 -27 -2 -17 -5z"/>
<path d="M3452 2478 c5 -15 28 -23 28 -10 0 5 -7 13 -16 16 -10 4 -14 1 -12
-6z"/>
<path d="M4400 2418 c0 -11 7 -18 20 -18 20 0 25 -13 20 -55 -1 -11 0 -18 2
-15 2 3 9 12 16 21 10 13 8 21 -9 42 -11 15 -18 30 -15 35 2 4 -4 8 -15 8 -12
0 -19 -7 -19 -18z"/>
<path d="M4715 2390 c-3 -5 -1 -10 4 -10 6 0 11 5 11 10 0 6 -2 10 -4 10 -3 0
-8 -4 -11 -10z"/>
<path d="M4404 2359 c-11 -12 -14 -23 -9 -27 6 -4 19 -24 30 -45 12 -23 25
-35 33 -32 8 3 16 5 18 5 2 0 4 5 4 10 0 6 -5 10 -11 10 -13 0 -39 25 -39 38
0 6 -6 13 -12 16 -10 3 -8 9 5 19 10 8 14 18 9 21 -5 3 -18 -4 -28 -15z"/>
<path d="M4465 2340 c3 -5 10 -10 16 -10 5 0 9 5 9 10 0 6 -7 10 -16 10 -8 0
-12 -4 -9 -10z"/>
<path d="M4505 2280 c3 -5 10 -10 16 -10 5 0 9 5 9 10 0 6 -7 10 -16 10 -8 0
-12 -4 -9 -10z"/>
<path d="M4527 2254 c-11 -11 -8 -24 4 -21 6 1 14 -4 16 -10 3 -8 -4 -13 -18
-13 -12 0 -19 -3 -16 -7 4 -3 20 -6 37 -5 20 0 30 -4 30 -14 0 -19 16 -18 24
1 3 8 0 15 -7 15 -7 0 -23 14 -37 31 -14 16 -29 27 -33 23z"/>
<path d="M4462 2218 c2 -6 10 -14 16 -16 7 -2 10 2 6 12 -7 18 -28 22 -22 4z"/>
<path d="M4490 2171 c0 -5 5 -13 10 -16 6 -3 10 -2 10 4 0 5 -4 13 -10 16 -5
3 -10 2 -10 -4z"/>
<path d="M4525 2160 c3 -5 8 -10 11 -10 2 0 4 5 4 10 0 6 -5 10 -11 10 -5 0
-7 -4 -4 -10z"/>
<path d="M4500 2130 c0 -5 9 -14 20 -20 22 -12 27 -1 8 18 -14 14 -28 16 -28
2z"/>
<path d="M4560 2096 c0 -2 7 -9 15 -16 9 -7 15 -8 15 -2 0 5 -7 12 -15 16 -8
3 -15 4 -15 2z"/>
<path d="M4550 2060 c0 -5 5 -10 10 -10 6 0 10 5 10 10 0 6 -4 10 -10 10 -5 0
-10 -4 -10 -10z"/>
<path d="M4520 2023 c11 -14 20 -32 20 -40 0 -21 34 -12 38 10 3 12 -4 20 -17
24 -12 3 -21 9 -21 13 0 4 -9 10 -20 13 -20 5 -20 5 0 -20z"/>
<path d="M4503 1988 c1 -21 5 -38 10 -38 9 0 8 17 -3 50 -7 21 -8 20 -7 -12z"/>
<path d="M4550 1950 c-12 -8 -11 -10 7 -10 12 0 25 5 28 10 8 13 -15 13 -35 0z"/>
<path d="M4515 1919 c-4 -12 -2 -26 4 -32 8 -8 11 -2 11 21 0 37 -6 41 -15 11z"/>
<path d="M4563 1916 c-16 -9 -19 -16 -12 -27 8 -11 12 -11 16 -1 2 6 9 10 14
6 5 -3 9 4 9 15 0 12 -1 21 -2 20 -2 -1 -13 -6 -25 -13z"/>
<path d="M6318 2523 c7 -3 16 -2 19 1 4 3 -2 6 -13 5 -11 0 -14 -3 -6 -6z"/>
<path d="M6240 2256 c0 -2 8 -10 18 -17 15 -13 16 -12 3 4 -13 16 -21 21 -21
13z"/>
<path d="M5805 2150 c-19 -8 -19 -9 3 -9 12 -1 22 4 22 9 0 6 -1 10 -2 9 -2 0
-12 -4 -23 -9z"/>
<path d="M6265 1980 c3 -5 8 -10 11 -10 2 0 4 5 4 10 0 6 -5 10 -11 10 -5 0
-7 -4 -4 -10z"/>
<path d="M5797 1949 c6 -22 23 -26 23 -5 0 8 -6 16 -14 19 -10 4 -12 0 -9 -14z"/>
<path d="M6275 1929 c-11 -17 1 -21 15 -4 8 9 8 15 2 15 -6 0 -14 -5 -17 -11z"/>
<path d="M6240 1904 c0 -8 5 -12 10 -9 6 4 8 11 5 16 -9 14 -15 11 -15 -7z"/>
<path d="M6281 1880 c-9 -5 -5 -9 10 -13 28 -7 31 -6 14 10 -6 6 -18 8 -24 3z"/>
<path d="M3095 2372 c-11 -11 -5 -21 10 -16 9 4 15 0 15 -7 0 -8 9 -25 20 -39
15 -19 22 -22 31 -13 9 9 8 15 -5 28 -9 9 -16 19 -16 23 0 10 -48 31 -55 24z"/>
<path d="M3160 2349 c0 -5 5 -7 10 -4 6 3 10 8 10 11 0 2 -4 4 -10 4 -5 0 -10
-5 -10 -11z"/>
<path d="M3097 2317 c-3 -7 4 -19 14 -25 20 -13 24 -6 13 22 -7 19 -20 21 -27
3z"/>
<path d="M3090 2265 c0 -9 7 -18 15 -21 8 -4 15 -15 15 -25 0 -24 -17 -25 -23
-1 -3 9 -5 3 -6 -14 -1 -21 5 -34 15 -38 11 -4 15 -14 12 -31 -5 -22 -3 -23
26 -18 41 8 43 10 27 35 -9 15 -10 23 -2 28 13 8 12 100 -1 100 -5 0 -19 -5
-31 -11 -16 -9 -22 -9 -25 0 -5 16 -22 13 -22 -4z m56 -103 c-13 -12 -17 8
-10 40 l9 33 3 -33 c2 -19 1 -36 -2 -40z"/>
<path d="M3091 2114 c0 -11 3 -14 6 -6 3 7 2 16 -1 19 -3 4 -6 -2 -5 -13z"/>
<path d="M3142 2098 c3 -7 13 -15 22 -16 12 -3 17 1 14 10 -3 7 -13 15 -22 16
-12 3 -17 -1 -14 -10z"/>
<path d="M4284 2515 c25 -19 37 -19 30 0 -4 8 -16 15 -28 15 -21 -1 -21 -1 -2
-15z"/>
<path d="M3975 2480 c3 -5 8 -10 11 -10 2 0 4 5 4 10 0 6 -5 10 -11 10 -5 0
-7 -4 -4 -10z"/>
<path d="M3956 2444 c-9 -24 -7 -27 9 -10 17 17 19 26 6 26 -5 0 -12 -7 -15
-16z"/>
<path d="M3935 2390 c3 -5 11 -10 16 -10 6 0 7 5 4 10 -3 6 -11 10 -16 10 -6
0 -7 -4 -4 -10z"/>
<path d="M3873 2228 c-23 -31 -69 -155 -60 -164 2 -3 8 7 12 23 6 25 35 94 57
136 10 20 5 23 -9 5z"/>
<path d="M3595 2360 c-3 -5 -1 -10 4 -10 6 0 11 5 11 10 0 6 -2 10 -4 10 -3 0
-8 -4 -11 -10z"/>
<path d="M3664 2145 c13 -14 28 -25 34 -25 9 0 8 7 0 25 -7 16 -19 25 -34 25
l-23 0 23 -25z"/>
<path d="M2451 2264 c0 -11 3 -14 6 -6 3 7 2 16 -1 19 -3 4 -6 -2 -5 -13z"/>
</g>
</svg>
